<svg xmlns="http://www.w3.org/2000/svg" xmlns:xlink="http://www.w3.org/1999/xlink" width="500" zoomAndPan="magnify" viewBox="0 0 375 374.999991" height="500" preserveAspectRatio="xMidYMid meet" version="1.2"><defs><clipPath id="bb2355bedb"><path d="M 298 147 L 331 147 L 331 180 L 298 180 Z M 298 147 "/></clipPath><clipPath id="336ef02b20"><path d="M 292.03125 152.3125 L 314.613281 131.4375 L 345.664062 165.035156 L 323.082031 185.90625 Z M 292.03125 152.3125 "/></clipPath><clipPath id="33a6dda687"><path d="M 292.03125 152.3125 L 314.613281 131.4375 L 345.664062 165.035156 L 323.082031 185.90625 Z M 292.03125 152.3125 "/></clipPath><clipPath id="bfbde1c43c"><path d="M 314 132 L 347 132 L 347 165 L 314 165 Z M 314 132 "/></clipPath><clipPath id="c8b7c6311d"><path d="M 308.238281 137.328125 L 330.820312 116.457031 L 361.875 150.054688 L 339.292969 170.925781 Z M 308.238281 137.328125 "/></clipPath><clipPath id="0c5eaf191c"><path d="M 308.238281 137.328125 L 330.820312 116.457031 L 361.875 150.054688 L 339.292969 170.925781 Z M 308.238281 137.328125 "/></clipPath></defs><g id="92e7f3fa6c"><rect x="0" width="375" y="0" height="374.999991" style="fill:#ffffff;fill-opacity:1;stroke:none;"/><rect x="0" width="375" y="0" height="374.999991" style="fill:#373643;fill-opacity:1;stroke:none;"/><g clip-rule="nonzero" clip-path="url(#bb2355bedb)"><g clip-rule="nonzero" clip-path="url(#336ef02b20)"><g clip-rule="nonzero" clip-path="url(#33a6dda687)"><path style=" stroke:none;fill-rule:nonzero;fill:#18cb96;fill-opacity:1;" d="M 330.246094 148.585938 L 302.917969 147.371094 C 297.640625 147.136719 296.75 157.417969 303.003906 157.585938 L 320.007812 158.046875 L 318.707031 175.15625 C 318.3125 180.367188 328.472656 180.917969 328.765625 175.621094 Z M 330.246094 148.585938 "/></g></g></g><g clip-rule="nonzero" clip-path="url(#bfbde1c43c)"><g clip-rule="nonzero" clip-path="url(#c8b7c6311d)"><g clip-rule="nonzero" clip-path="url(#0c5eaf191c)"><path style=" stroke:none;fill-rule:nonzero;fill:#18cb96;fill-opacity:1;" d="M 346.453125 133.601562 L 319.128906 132.386719 C 313.851562 132.152344 312.960938 142.433594 319.214844 142.605469 L 336.21875 143.066406 L 334.917969 160.175781 C 334.523438 165.382812 344.683594 165.933594 344.972656 160.640625 Z M 346.453125 133.601562 "/></g></g></g><g style="fill:#ffffff;fill-opacity:1;"><g transform="translate(57.382153, 207.594118)"><path style="stroke:none" d="M 14.09375 -14.421875 L 14.09375 -4.15625 C 14.09375 -2.738281 13.585938 -1.691406 12.578125 -1.015625 C 11.578125 -0.335938 10.507812 0 9.375 0 C 8.175781 0 7.101562 -0.335938 6.15625 -1.015625 C 5.207031 -1.691406 4.734375 -2.710938 4.734375 -4.078125 L 4.734375 -47.671875 C 4.734375 -48.921875 5.191406 -49.941406 6.109375 -50.734375 C 7.035156 -51.523438 8.148438 -51.921875 9.453125 -51.921875 L 26.078125 -51.921875 C 30.585938 -51.921875 34.445312 -51.117188 37.65625 -49.515625 C 40.863281 -47.910156 43.304688 -45.679688 44.984375 -42.828125 C 46.671875 -39.972656 47.515625 -36.617188 47.515625 -32.765625 C 47.515625 -27.273438 45.613281 -22.84375 41.8125 -19.46875 C 38.007812 -16.101562 32.679688 -14.421875 25.828125 -14.421875 Z M 14.09375 -43.84375 L 14.09375 -22.5 L 25.828125 -22.5 C 29.847656 -22.5 32.914062 -23.4375 35.03125 -25.3125 C 37.15625 -27.1875 38.21875 -29.671875 38.21875 -32.765625 C 38.21875 -36.128906 37.171875 -38.816406 35.078125 -40.828125 C 32.992188 -42.835938 30.019531 -43.84375 26.15625 -43.84375 Z M 14.09375 -43.84375 "/></g></g><g style="fill:#ffffff;fill-opacity:1;"><g transform="translate(106.444624, 207.594118)"><path style="stroke:none" d="M 37.890625 -41.484375 C 39.304688 -41.484375 40.4375 -41.085938 41.28125 -40.296875 C 42.125 -39.515625 42.546875 -38.5 42.546875 -37.25 L 42.546875 -4.234375 C 42.546875 -2.984375 42.125 -1.960938 41.28125 -1.171875 C 40.4375 -0.390625 39.304688 0 37.890625 0 C 36.535156 0 35.476562 -0.3125 34.71875 -0.9375 C 33.957031 -1.5625 33.492188 -2.390625 33.328125 -3.421875 C 31.484375 -1.953125 29.421875 -0.878906 27.140625 -0.203125 C 24.859375 0.472656 22.6875 0.8125 20.625 0.8125 C 16.707031 0.8125 13.320312 -0.0820312 10.46875 -1.875 C 7.613281 -3.664062 5.425781 -6.191406 3.90625 -9.453125 C 2.382812 -12.710938 1.625 -16.515625 1.625 -20.859375 C 1.625 -25.097656 2.46875 -28.820312 4.15625 -32.03125 C 5.84375 -35.238281 8.191406 -37.75 11.203125 -39.5625 C 14.222656 -41.382812 17.710938 -42.296875 21.671875 -42.296875 C 23.410156 -42.296875 25.335938 -41.96875 27.453125 -41.3125 C 29.578125 -40.664062 31.535156 -39.632812 33.328125 -38.21875 C 33.546875 -39.195312 34.035156 -39.984375 34.796875 -40.578125 C 35.554688 -41.179688 36.585938 -41.484375 37.890625 -41.484375 Z M 21.59375 -7.421875 C 23.988281 -7.421875 26.296875 -7.945312 28.515625 -9 C 30.742188 -10.0625 32.320312 -11.625 33.25 -13.6875 L 33.25 -27.796875 C 32.21875 -29.804688 30.671875 -31.351562 28.609375 -32.4375 C 26.546875 -33.519531 24.453125 -34.0625 22.328125 -34.0625 C 18.910156 -34.0625 16.15625 -32.8125 14.0625 -30.3125 C 11.96875 -27.8125 10.921875 -24.632812 10.921875 -20.78125 C 10.921875 -16.757812 11.894531 -13.523438 13.84375 -11.078125 C 15.800781 -8.640625 18.382812 -7.421875 21.59375 -7.421875 Z M 21.59375 -7.421875 "/></g></g><g style="fill:#ffffff;fill-opacity:1;"><g transform="translate(153.551093, 207.594118)"><path style="stroke:none" d="M 27.46875 -42.296875 C 31.269531 -42.296875 34.5 -41.46875 37.15625 -39.8125 C 39.820312 -38.15625 41.859375 -35.859375 43.265625 -32.921875 C 44.679688 -29.992188 45.390625 -26.570312 45.390625 -22.65625 L 45.390625 -4.234375 C 45.390625 -2.984375 44.984375 -1.960938 44.171875 -1.171875 C 43.359375 -0.390625 42.21875 0 40.75 0 C 39.394531 0 38.28125 -0.390625 37.40625 -1.171875 C 36.539062 -1.960938 36.109375 -2.984375 36.109375 -4.234375 L 36.109375 -22.8125 C 36.109375 -26.1875 35.304688 -28.921875 33.703125 -31.015625 C 32.097656 -33.109375 29.554688 -34.15625 26.078125 -34.15625 C 25.046875 -34.15625 23.8125 -33.867188 22.375 -33.296875 C 20.9375 -32.722656 19.523438 -31.863281 18.140625 -30.71875 C 16.753906 -29.582031 15.609375 -28.144531 14.703125 -26.40625 C 13.804688 -24.664062 13.359375 -22.601562 13.359375 -20.21875 L 13.359375 -4.15625 C 13.359375 -1.382812 11.867188 0 8.890625 0 C 7.472656 0 6.316406 -0.363281 5.421875 -1.09375 C 4.523438 -1.832031 4.078125 -2.851562 4.078125 -4.15625 L 4.078125 -37.328125 C 4.078125 -38.679688 4.550781 -39.710938 5.5 -40.421875 C 6.445312 -41.128906 7.519531 -41.484375 8.71875 -41.484375 C 9.863281 -41.484375 10.921875 -41.128906 11.890625 -40.421875 C 12.867188 -39.710938 13.359375 -38.734375 13.359375 -37.484375 L 13.359375 -36.921875 C 15.703125 -39.085938 18.125 -40.523438 20.625 -41.234375 C 23.125 -41.941406 25.40625 -42.296875 27.46875 -42.296875 Z M 27.46875 -42.296875 "/></g></g><g style="fill:#ffffff;fill-opacity:1;"><g transform="translate(203.021066, 207.594118)"><path style="stroke:none" d="M 37.984375 -41.484375 C 39.390625 -41.484375 40.59375 -40.867188 41.59375 -39.640625 C 42.601562 -38.421875 42.8125 -37 42.21875 -35.375 L 18.421875 11.328125 C 17.878906 12.359375 17.1875 13.171875 16.34375 13.765625 C 15.5 14.367188 14.613281 14.671875 13.6875 14.671875 C 12.769531 14.671875 11.914062 14.359375 11.125 13.734375 C 10.332031 13.109375 9.785156 12.304688 9.484375 11.328125 C 9.191406 10.347656 9.316406 9.316406 9.859375 8.234375 L 16.0625 -4 L 0 -35.046875 C -0.488281 -36.128906 -0.554688 -37.160156 -0.203125 -38.140625 C 0.148438 -39.117188 0.734375 -39.921875 1.546875 -40.546875 C 2.359375 -41.171875 3.253906 -41.484375 4.234375 -41.484375 C 5.109375 -41.484375 5.953125 -41.210938 6.765625 -40.671875 C 7.578125 -40.128906 8.175781 -39.421875 8.5625 -38.546875 L 21.109375 -14.015625 L 33.65625 -38.625 C 34.039062 -39.5 34.613281 -40.191406 35.375 -40.703125 C 36.132812 -41.222656 37.003906 -41.484375 37.984375 -41.484375 Z M 37.984375 -41.484375 "/></g></g><g style="fill:#ffffff;fill-opacity:1;"><g transform="translate(245.482015, 207.594118)"><path style="stroke:none" d="M 37.890625 -41.484375 C 39.304688 -41.484375 40.4375 -41.085938 41.28125 -40.296875 C 42.125 -39.515625 42.546875 -38.5 42.546875 -37.25 L 42.546875 -4.234375 C 42.546875 -2.984375 42.125 -1.960938 41.28125 -1.171875 C 40.4375 -0.390625 39.304688 0 37.890625 0 C 36.535156 0 35.476562 -0.3125 34.71875 -0.9375 C 33.957031 -1.5625 33.492188 -2.390625 33.328125 -3.421875 C 31.484375 -1.953125 29.421875 -0.878906 27.140625 -0.203125 C 24.859375 0.472656 22.6875 0.8125 20.625 0.8125 C 16.707031 0.8125 13.320312 -0.0820312 10.46875 -1.875 C 7.613281 -3.664062 5.425781 -6.191406 3.90625 -9.453125 C 2.382812 -12.710938 1.625 -16.515625 1.625 -20.859375 C 1.625 -25.097656 2.46875 -28.820312 4.15625 -32.03125 C 5.84375 -35.238281 8.191406 -37.75 11.203125 -39.5625 C 14.222656 -41.382812 17.710938 -42.296875 21.671875 -42.296875 C 23.410156 -42.296875 25.335938 -41.96875 27.453125 -41.3125 C 29.578125 -40.664062 31.535156 -39.632812 33.328125 -38.21875 C 33.546875 -39.195312 34.035156 -39.984375 34.796875 -40.578125 C 35.554688 -41.179688 36.585938 -41.484375 37.890625 -41.484375 Z M 21.59375 -7.421875 C 23.988281 -7.421875 26.296875 -7.945312 28.515625 -9 C 30.742188 -10.0625 32.320312 -11.625 33.25 -13.6875 L 33.25 -27.796875 C 32.21875 -29.804688 30.671875 -31.351562 28.609375 -32.4375 C 26.546875 -33.519531 24.453125 -34.0625 22.328125 -34.0625 C 18.910156 -34.0625 16.15625 -32.8125 14.0625 -30.3125 C 11.96875 -27.8125 10.921875 -24.632812 10.921875 -20.78125 C 10.921875 -16.757812 11.894531 -13.523438 13.84375 -11.078125 C 15.800781 -8.640625 18.382812 -7.421875 21.59375 -7.421875 Z M 21.59375 -7.421875 "/></g></g><g style="fill:#ffffff;fill-opacity:1;"><g transform="translate(58.641036, 251.879537)"><path style="stroke:none" d="M 12.3125 -4.609375 L 3.765625 -4.609375 L 2.046875 0 L 0.796875 0 L 7.40625 -17.59375 L 8.6875 -17.59375 L 15.28125 0 L 14.03125 0 Z M 11.953125 -5.59375 L 8.046875 -16.078125 L 4.125 -5.59375 Z M 11.953125 -5.59375 "/></g></g><g style="fill:#ffffff;fill-opacity:1;"><g transform="translate(73.742193, 251.879537)"><path style="stroke:none" d="M 6.75 0.203125 C 5.1875 0.203125 3.914062 -0.132812 2.9375 -0.8125 C 1.957031 -1.5 1.40625 -2.476562 1.28125 -3.75 L 2.46875 -3.75 C 2.550781 -2.84375 2.960938 -2.125 3.703125 -1.59375 C 4.453125 -1.0625 5.46875 -0.796875 6.75 -0.796875 C 7.800781 -0.796875 8.640625 -1.0625 9.265625 -1.59375 C 9.890625 -2.132812 10.203125 -2.800781 10.203125 -3.59375 C 10.203125 -4.132812 10.035156 -4.582031 9.703125 -4.9375 C 9.367188 -5.289062 8.953125 -5.5625 8.453125 -5.75 C 7.960938 -5.9375 7.289062 -6.140625 6.4375 -6.359375 C 5.40625 -6.628906 4.570312 -6.894531 3.9375 -7.15625 C 3.3125 -7.425781 2.773438 -7.828125 2.328125 -8.359375 C 1.890625 -8.890625 1.671875 -9.597656 1.671875 -10.484375 C 1.671875 -11.140625 1.863281 -11.742188 2.25 -12.296875 C 2.644531 -12.847656 3.191406 -13.285156 3.890625 -13.609375 C 4.597656 -13.941406 5.394531 -14.109375 6.28125 -14.109375 C 7.738281 -14.109375 8.914062 -13.742188 9.8125 -13.015625 C 10.707031 -12.285156 11.1875 -11.28125 11.25 -10 L 10.109375 -10 C 10.054688 -10.925781 9.695312 -11.675781 9.03125 -12.25 C 8.363281 -12.832031 7.4375 -13.125 6.25 -13.125 C 5.257812 -13.125 4.441406 -12.867188 3.796875 -12.359375 C 3.148438 -11.847656 2.828125 -11.222656 2.828125 -10.484375 C 2.828125 -9.835938 3.007812 -9.3125 3.375 -8.90625 C 3.738281 -8.507812 4.1875 -8.203125 4.71875 -7.984375 C 5.257812 -7.773438 5.976562 -7.550781 6.875 -7.3125 C 7.84375 -7.050781 8.625 -6.796875 9.21875 -6.546875 C 9.8125 -6.296875 10.3125 -5.9375 10.71875 -5.46875 C 11.125 -5 11.328125 -4.375 11.328125 -3.59375 C 11.328125 -2.875 11.128906 -2.222656 10.734375 -1.640625 C 10.347656 -1.054688 9.800781 -0.601562 9.09375 -0.28125 C 8.394531 0.0390625 7.613281 0.203125 6.75 0.203125 Z M 6.75 0.203125 "/></g></g><g style="fill:#ffffff;fill-opacity:1;"><g transform="translate(85.510278, 251.879537)"><path style="stroke:none" d="M 6.75 0.203125 C 5.1875 0.203125 3.914062 -0.132812 2.9375 -0.8125 C 1.957031 -1.5 1.40625 -2.476562 1.28125 -3.75 L 2.46875 -3.75 C 2.550781 -2.84375 2.960938 -2.125 3.703125 -1.59375 C 4.453125 -1.0625 5.46875 -0.796875 6.75 -0.796875 C 7.800781 -0.796875 8.640625 -1.0625 9.265625 -1.59375 C 9.890625 -2.132812 10.203125 -2.800781 10.203125 -3.59375 C 10.203125 -4.132812 10.035156 -4.582031 9.703125 -4.9375 C 9.367188 -5.289062 8.953125 -5.5625 8.453125 -5.75 C 7.960938 -5.9375 7.289062 -6.140625 6.4375 -6.359375 C 5.40625 -6.628906 4.570312 -6.894531 3.9375 -7.15625 C 3.3125 -7.425781 2.773438 -7.828125 2.328125 -8.359375 C 1.890625 -8.890625 1.671875 -9.597656 1.671875 -10.484375 C 1.671875 -11.140625 1.863281 -11.742188 2.25 -12.296875 C 2.644531 -12.847656 3.191406 -13.285156 3.890625 -13.609375 C 4.597656 -13.941406 5.394531 -14.109375 6.28125 -14.109375 C 7.738281 -14.109375 8.914062 -13.742188 9.8125 -13.015625 C 10.707031 -12.285156 11.1875 -11.28125 11.25 -10 L 10.109375 -10 C 10.054688 -10.925781 9.695312 -11.675781 9.03125 -12.25 C 8.363281 -12.832031 7.4375 -13.125 6.25 -13.125 C 5.257812 -13.125 4.441406 -12.867188 3.796875 -12.359375 C 3.148438 -11.847656 2.828125 -11.222656 2.828125 -10.484375 C 2.828125 -9.835938 3.007812 -9.3125 3.375 -8.90625 C 3.738281 -8.507812 4.1875 -8.203125 4.71875 -7.984375 C 5.257812 -7.773438 5.976562 -7.550781 6.875 -7.3125 C 7.84375 -7.050781 8.625 -6.796875 9.21875 -6.546875 C 9.8125 -6.296875 10.3125 -5.9375 10.71875 -5.46875 C 11.125 -5 11.328125 -4.375 11.328125 -3.59375 C 11.328125 -2.875 11.128906 -2.222656 10.734375 -1.640625 C 10.347656 -1.054688 9.800781 -0.601562 9.09375 -0.28125 C 8.394531 0.0390625 7.613281 0.203125 6.75 0.203125 Z M 6.75 0.203125 "/></g></g><g style="fill:#ffffff;fill-opacity:1;"><g transform="translate(97.278363, 251.879537)"><path style="stroke:none" d="M 2.6875 -17.03125 C 2.414062 -17.03125 2.1875 -17.117188 2 -17.296875 C 1.8125 -17.472656 1.71875 -17.71875 1.71875 -18.03125 C 1.71875 -18.320312 1.8125 -18.5625 2 -18.75 C 2.1875 -18.9375 2.414062 -19.03125 2.6875 -19.03125 C 2.96875 -19.03125 3.203125 -18.9375 3.390625 -18.75 C 3.578125 -18.5625 3.671875 -18.320312 3.671875 -18.03125 C 3.671875 -17.71875 3.578125 -17.472656 3.390625 -17.296875 C 3.203125 -17.117188 2.96875 -17.03125 2.6875 -17.03125 Z M 3.25 -13.921875 L 3.25 0 L 2.109375 0 L 2.109375 -13.921875 Z M 3.25 -13.921875 "/></g></g><g style="fill:#ffffff;fill-opacity:1;"><g transform="translate(101.68803, 251.879537)"><path style="stroke:none" d="M 6.75 0.203125 C 5.1875 0.203125 3.914062 -0.132812 2.9375 -0.8125 C 1.957031 -1.5 1.40625 -2.476562 1.28125 -3.75 L 2.46875 -3.75 C 2.550781 -2.84375 2.960938 -2.125 3.703125 -1.59375 C 4.453125 -1.0625 5.46875 -0.796875 6.75 -0.796875 C 7.800781 -0.796875 8.640625 -1.0625 9.265625 -1.59375 C 9.890625 -2.132812 10.203125 -2.800781 10.203125 -3.59375 C 10.203125 -4.132812 10.035156 -4.582031 9.703125 -4.9375 C 9.367188 -5.289062 8.953125 -5.5625 8.453125 -5.75 C 7.960938 -5.9375 7.289062 -6.140625 6.4375 -6.359375 C 5.40625 -6.628906 4.570312 -6.894531 3.9375 -7.15625 C 3.3125 -7.425781 2.773438 -7.828125 2.328125 -8.359375 C 1.890625 -8.890625 1.671875 -9.597656 1.671875 -10.484375 C 1.671875 -11.140625 1.863281 -11.742188 2.25 -12.296875 C 2.644531 -12.847656 3.191406 -13.285156 3.890625 -13.609375 C 4.597656 -13.941406 5.394531 -14.109375 6.28125 -14.109375 C 7.738281 -14.109375 8.914062 -13.742188 9.8125 -13.015625 C 10.707031 -12.285156 11.1875 -11.28125 11.25 -10 L 10.109375 -10 C 10.054688 -10.925781 9.695312 -11.675781 9.03125 -12.25 C 8.363281 -12.832031 7.4375 -13.125 6.25 -13.125 C 5.257812 -13.125 4.441406 -12.867188 3.796875 -12.359375 C 3.148438 -11.847656 2.828125 -11.222656 2.828125 -10.484375 C 2.828125 -9.835938 3.007812 -9.3125 3.375 -8.90625 C 3.738281 -8.507812 4.1875 -8.203125 4.71875 -7.984375 C 5.257812 -7.773438 5.976562 -7.550781 6.875 -7.3125 C 7.84375 -7.050781 8.625 -6.796875 9.21875 -6.546875 C 9.8125 -6.296875 10.3125 -5.9375 10.71875 -5.46875 C 11.125 -5 11.328125 -4.375 11.328125 -3.59375 C 11.328125 -2.875 11.128906 -2.222656 10.734375 -1.640625 C 10.347656 -1.054688 9.800781 -0.601562 9.09375 -0.28125 C 8.394531 0.0390625 7.613281 0.203125 6.75 0.203125 Z M 6.75 0.203125 "/></g></g><g style="fill:#ffffff;fill-opacity:1;"><g transform="translate(113.456115, 251.879537)"><path style="stroke:none" d="M 3.828125 -12.921875 L 3.828125 -3.71875 C 3.828125 -2.6875 4.015625 -1.976562 4.390625 -1.59375 C 4.765625 -1.21875 5.429688 -1.03125 6.390625 -1.03125 L 7.953125 -1.03125 L 7.953125 0 L 6.203125 0 C 4.992188 0 4.101562 -0.285156 3.53125 -0.859375 C 2.957031 -1.429688 2.671875 -2.382812 2.671875 -3.71875 L 2.671875 -12.921875 L 0.5625 -12.921875 L 0.5625 -13.921875 L 2.671875 -13.921875 L 2.671875 -17.46875 L 3.828125 -17.46875 L 3.828125 -13.921875 L 7.953125 -13.921875 L 7.953125 -12.921875 Z M 3.828125 -12.921875 "/></g></g><g style="fill:#ffffff;fill-opacity:1;"><g transform="translate(121.378337, 251.879537)"><path style="stroke:none" d="M 1.390625 -6.96875 C 1.390625 -8.40625 1.675781 -9.660156 2.25 -10.734375 C 2.820312 -11.816406 3.613281 -12.648438 4.625 -13.234375 C 5.644531 -13.816406 6.804688 -14.109375 8.109375 -14.109375 C 9.578125 -14.109375 10.820312 -13.75 11.84375 -13.03125 C 12.875 -12.3125 13.59375 -11.394531 14 -10.28125 L 14 -13.921875 L 15.15625 -13.921875 L 15.15625 0 L 14 0 L 14 -3.671875 C 13.59375 -2.535156 12.867188 -1.601562 11.828125 -0.875 C 10.796875 -0.15625 9.554688 0.203125 8.109375 0.203125 C 6.804688 0.203125 5.644531 -0.0859375 4.625 -0.671875 C 3.613281 -1.265625 2.820312 -2.101562 2.25 -3.1875 C 1.675781 -4.28125 1.390625 -5.539062 1.390625 -6.96875 Z M 14 -6.96875 C 14 -8.1875 13.742188 -9.257812 13.234375 -10.1875 C 12.734375 -11.125 12.046875 -11.84375 11.171875 -12.34375 C 10.304688 -12.851562 9.332031 -13.109375 8.25 -13.109375 C 7.125 -13.109375 6.132812 -12.863281 5.28125 -12.375 C 4.425781 -11.882812 3.757812 -11.175781 3.28125 -10.25 C 2.800781 -9.332031 2.5625 -8.238281 2.5625 -6.96875 C 2.5625 -5.707031 2.800781 -4.613281 3.28125 -3.6875 C 3.757812 -2.769531 4.429688 -2.0625 5.296875 -1.5625 C 6.160156 -1.070312 7.144531 -0.828125 8.25 -0.828125 C 9.332031 -0.828125 10.3125 -1.078125 11.1875 -1.578125 C 12.070312 -2.078125 12.757812 -2.789062 13.25 -3.71875 C 13.75 -4.65625 14 -5.738281 14 -6.96875 Z M 14 -6.96875 "/></g></g><g style="fill:#ffffff;fill-opacity:1;"><g transform="translate(137.658899, 251.879537)"><path style="stroke:none" d="M 8.390625 -14.203125 C 10.046875 -14.203125 11.394531 -13.691406 12.4375 -12.671875 C 13.476562 -11.660156 14 -10.15625 14 -8.15625 L 14 0 L 12.875 0 L 12.875 -8.078125 C 12.875 -9.734375 12.453125 -11 11.609375 -11.875 C 10.773438 -12.757812 9.640625 -13.203125 8.203125 -13.203125 C 6.703125 -13.203125 5.5 -12.722656 4.59375 -11.765625 C 3.695312 -10.804688 3.25 -9.390625 3.25 -7.515625 L 3.25 0 L 2.109375 0 L 2.109375 -13.921875 L 3.25 -13.921875 L 3.25 -10.96875 C 3.644531 -12.007812 4.300781 -12.804688 5.21875 -13.359375 C 6.132812 -13.921875 7.191406 -14.203125 8.390625 -14.203125 Z M 8.390625 -14.203125 "/></g></g><g style="fill:#ffffff;fill-opacity:1;"><g transform="translate(152.657506, 251.879537)"><path style="stroke:none" d="M 3.828125 -12.921875 L 3.828125 -3.71875 C 3.828125 -2.6875 4.015625 -1.976562 4.390625 -1.59375 C 4.765625 -1.21875 5.429688 -1.03125 6.390625 -1.03125 L 7.953125 -1.03125 L 7.953125 0 L 6.203125 0 C 4.992188 0 4.101562 -0.285156 3.53125 -0.859375 C 2.957031 -1.429688 2.671875 -2.382812 2.671875 -3.71875 L 2.671875 -12.921875 L 0.5625 -12.921875 L 0.5625 -13.921875 L 2.671875 -13.921875 L 2.671875 -17.46875 L 3.828125 -17.46875 L 3.828125 -13.921875 L 7.953125 -13.921875 L 7.953125 -12.921875 Z M 3.828125 -12.921875 "/></g></g><g style="fill:#ffffff;fill-opacity:1;"><g transform="translate(160.579729, 251.879537)"><path style="stroke:none" d=""/></g></g><g style="fill:#ffffff;fill-opacity:1;"><g transform="translate(166.835414, 251.879537)"><path style="stroke:none" d="M 7.40625 -12.890625 L 3.796875 -12.890625 L 3.796875 0 L 2.640625 0 L 2.640625 -12.890625 L 0.53125 -12.890625 L 0.53125 -13.921875 L 2.640625 -13.921875 L 2.640625 -14.890625 C 2.640625 -16.347656 3.003906 -17.429688 3.734375 -18.140625 C 4.472656 -18.847656 5.679688 -19.203125 7.359375 -19.203125 L 7.359375 -18.171875 C 6.023438 -18.171875 5.097656 -17.914062 4.578125 -17.40625 C 4.054688 -16.894531 3.796875 -16.054688 3.796875 -14.890625 L 3.796875 -13.921875 L 7.40625 -13.921875 Z M 7.40625 -12.890625 "/></g></g><g style="fill:#ffffff;fill-opacity:1;"><g transform="translate(174.11666, 251.879537)"><path style="stroke:none" d="M 8.234375 0.203125 C 6.929688 0.203125 5.757812 -0.0820312 4.71875 -0.65625 C 3.675781 -1.238281 2.859375 -2.070312 2.265625 -3.15625 C 1.679688 -4.25 1.390625 -5.519531 1.390625 -6.96875 C 1.390625 -8.40625 1.6875 -9.664062 2.28125 -10.75 C 2.875 -11.84375 3.695312 -12.675781 4.75 -13.25 C 5.800781 -13.820312 6.976562 -14.109375 8.28125 -14.109375 C 9.582031 -14.109375 10.753906 -13.820312 11.796875 -13.25 C 12.835938 -12.675781 13.648438 -11.847656 14.234375 -10.765625 C 14.828125 -9.691406 15.125 -8.425781 15.125 -6.96875 C 15.125 -5.519531 14.820312 -4.25 14.21875 -3.15625 C 13.625 -2.070312 12.800781 -1.238281 11.75 -0.65625 C 10.695312 -0.0820312 9.523438 0.203125 8.234375 0.203125 Z M 8.234375 -0.828125 C 9.242188 -0.828125 10.1875 -1.050781 11.0625 -1.5 C 11.945312 -1.945312 12.648438 -2.632812 13.171875 -3.5625 C 13.703125 -4.488281 13.96875 -5.625 13.96875 -6.96875 C 13.96875 -8.300781 13.703125 -9.429688 13.171875 -10.359375 C 12.648438 -11.285156 11.953125 -11.972656 11.078125 -12.421875 C 10.203125 -12.878906 9.257812 -13.109375 8.25 -13.109375 C 7.25 -13.109375 6.316406 -12.878906 5.453125 -12.421875 C 4.585938 -11.972656 3.890625 -11.285156 3.359375 -10.359375 C 2.828125 -9.429688 2.5625 -8.300781 2.5625 -6.96875 C 2.5625 -5.625 2.820312 -4.488281 3.34375 -3.5625 C 3.863281 -2.632812 4.554688 -1.945312 5.421875 -1.5 C 6.285156 -1.050781 7.222656 -0.828125 8.234375 -0.828125 Z M 8.234375 -0.828125 "/></g></g><g style="fill:#ffffff;fill-opacity:1;"><g transform="translate(189.679312, 251.879537)"><path style="stroke:none" d="M 3.25 -11.046875 C 3.59375 -12.078125 4.203125 -12.859375 5.078125 -13.390625 C 5.953125 -13.929688 7.0625 -14.203125 8.40625 -14.203125 L 8.40625 -13 L 8.03125 -13 C 6.65625 -13 5.515625 -12.609375 4.609375 -11.828125 C 3.703125 -11.054688 3.25 -9.789062 3.25 -8.03125 L 3.25 0 L 2.109375 0 L 2.109375 -13.921875 L 3.25 -13.921875 Z M 3.25 -11.046875 "/></g></g><g style="fill:#ffffff;fill-opacity:1;"><g transform="translate(197.678447, 251.879537)"><path style="stroke:none" d=""/></g></g><g style="fill:#ffffff;fill-opacity:1;"><g transform="translate(203.934133, 251.879537)"><path style="stroke:none" d="M 13 -12.921875 C 13 -11.328125 12.503906 -10.085938 11.515625 -9.203125 C 10.523438 -8.328125 9.054688 -7.890625 7.109375 -7.890625 L 3.25 -7.890625 L 3.25 0 L 2.109375 0 L 2.109375 -18 L 7.109375 -18 C 9.085938 -18 10.5625 -17.539062 11.53125 -16.625 C 12.507812 -15.707031 13 -14.472656 13 -12.921875 Z M 7.109375 -8.921875 C 10.265625 -8.921875 11.84375 -10.253906 11.84375 -12.921875 C 11.84375 -14.234375 11.46875 -15.234375 10.71875 -15.921875 C 9.96875 -16.617188 8.765625 -16.96875 7.109375 -16.96875 L 3.25 -16.96875 L 3.25 -8.921875 Z M 7.109375 -8.921875 "/></g></g><g style="fill:#ffffff;fill-opacity:1;"><g transform="translate(216.958534, 251.879537)"><path style="stroke:none" d="M 3.25 -0.96875 L 9.953125 -0.96875 L 9.953125 0 L 2.109375 0 L 2.109375 -18 L 3.25 -18 Z M 3.25 -0.96875 "/></g></g><g style="fill:#ffffff;fill-opacity:1;"><g transform="translate(226.444743, 251.879537)"><path style="stroke:none" d="M 1.390625 -8.96875 C 1.390625 -10.75 1.757812 -12.335938 2.5 -13.734375 C 3.238281 -15.128906 4.257812 -16.21875 5.5625 -17 C 6.875 -17.78125 8.34375 -18.171875 9.96875 -18.171875 C 12.019531 -18.171875 13.742188 -17.691406 15.140625 -16.734375 C 16.546875 -15.785156 17.578125 -14.445312 18.234375 -12.71875 L 16.890625 -12.71875 C 16.378906 -14.082031 15.53125 -15.160156 14.34375 -15.953125 C 13.15625 -16.753906 11.695312 -17.15625 9.96875 -17.15625 C 8.582031 -17.15625 7.328125 -16.820312 6.203125 -16.15625 C 5.078125 -15.5 4.1875 -14.550781 3.53125 -13.3125 C 2.882812 -12.082031 2.5625 -10.632812 2.5625 -8.96875 C 2.5625 -7.332031 2.882812 -5.898438 3.53125 -4.671875 C 4.1875 -3.453125 5.078125 -2.507812 6.203125 -1.84375 C 7.328125 -1.175781 8.582031 -0.84375 9.96875 -0.84375 C 11.695312 -0.84375 13.15625 -1.238281 14.34375 -2.03125 C 15.53125 -2.832031 16.378906 -3.914062 16.890625 -5.28125 L 18.234375 -5.28125 C 17.578125 -3.550781 16.546875 -2.207031 15.140625 -1.25 C 13.742188 -0.300781 12.019531 0.171875 9.96875 0.171875 C 8.34375 0.171875 6.875 -0.210938 5.5625 -0.984375 C 4.257812 -1.765625 3.238281 -2.847656 2.5 -4.234375 C 1.757812 -5.628906 1.390625 -7.207031 1.390625 -8.96875 Z M 1.390625 -8.96875 "/></g></g><g style="fill:#ffffff;fill-opacity:1;"><g transform="translate(245.21228, 251.879537)"><path style="stroke:none" d="M 8.390625 -14.203125 C 10.046875 -14.203125 11.394531 -13.691406 12.4375 -12.671875 C 13.476562 -11.660156 14 -10.15625 14 -8.15625 L 14 0 L 12.875 0 L 12.875 -8.078125 C 12.875 -9.734375 12.453125 -11 11.609375 -11.875 C 10.773438 -12.757812 9.640625 -13.203125 8.203125 -13.203125 C 6.703125 -13.203125 5.5 -12.722656 4.59375 -11.765625 C 3.695312 -10.804688 3.25 -9.390625 3.25 -7.515625 L 3.25 0 L 2.109375 0 L 2.109375 -13.921875 L 3.25 -13.921875 L 3.25 -10.96875 C 3.644531 -12.007812 4.300781 -12.804688 5.21875 -13.359375 C 6.132812 -13.921875 7.191406 -14.203125 8.390625 -14.203125 Z M 8.390625 -14.203125 "/></g></g><g style="fill:#ffffff;fill-opacity:1;"><g transform="translate(260.210888, 251.879537)"><path style="stroke:none" d="M 14.640625 -7.890625 C 14.640625 -7.273438 14.625 -6.816406 14.59375 -6.515625 L 2.5625 -6.515625 C 2.59375 -5.265625 2.863281 -4.210938 3.375 -3.359375 C 3.894531 -2.503906 4.570312 -1.863281 5.40625 -1.4375 C 6.25 -1.007812 7.164062 -0.796875 8.15625 -0.796875 C 9.519531 -0.796875 10.660156 -1.132812 11.578125 -1.8125 C 12.503906 -2.488281 13.085938 -3.40625 13.328125 -4.5625 L 14.53125 -4.5625 C 14.257812 -3.144531 13.5625 -1.992188 12.4375 -1.109375 C 11.3125 -0.234375 9.882812 0.203125 8.15625 0.203125 C 6.851562 0.203125 5.6875 -0.0820312 4.65625 -0.65625 C 3.632812 -1.238281 2.832031 -2.070312 2.25 -3.15625 C 1.675781 -4.25 1.390625 -5.519531 1.390625 -6.96875 C 1.390625 -8.425781 1.675781 -9.691406 2.25 -10.765625 C 2.820312 -11.847656 3.617188 -12.675781 4.640625 -13.25 C 5.660156 -13.820312 6.832031 -14.109375 8.15625 -14.109375 C 9.488281 -14.109375 10.644531 -13.820312 11.625 -13.25 C 12.613281 -12.675781 13.363281 -11.910156 13.875 -10.953125 C 14.382812 -10.003906 14.640625 -8.984375 14.640625 -7.890625 Z M 13.484375 -7.46875 C 13.535156 -8.695312 13.316406 -9.738281 12.828125 -10.59375 C 12.347656 -11.445312 11.6875 -12.082031 10.84375 -12.5 C 10.007812 -12.914062 9.101562 -13.125 8.125 -13.125 C 7.15625 -13.125 6.253906 -12.914062 5.421875 -12.5 C 4.585938 -12.082031 3.910156 -11.445312 3.390625 -10.59375 C 2.867188 -9.738281 2.59375 -8.695312 2.5625 -7.46875 Z M 13.484375 -7.46875 "/></g></g><g style="fill:#ffffff;fill-opacity:1;"><g transform="translate(275.26077, 251.879537)"><path style="stroke:none" d="M 9.46875 0 L 5.53125 -6.125 L 1.6875 0 L 0.46875 0 L 4.953125 -7.03125 L 0.515625 -13.921875 L 1.828125 -13.921875 L 5.6875 -7.921875 L 9.484375 -13.921875 L 10.6875 -13.921875 L 6.25 -7 L 10.765625 0 Z M 9.46875 0 "/></g></g><g style="fill:#ffffff;fill-opacity:1;"><g transform="translate(285.516143, 251.879537)"><path style="stroke:none" d="M 3.828125 -12.921875 L 3.828125 -3.71875 C 3.828125 -2.6875 4.015625 -1.976562 4.390625 -1.59375 C 4.765625 -1.21875 5.429688 -1.03125 6.390625 -1.03125 L 7.953125 -1.03125 L 7.953125 0 L 6.203125 0 C 4.992188 0 4.101562 -0.285156 3.53125 -0.859375 C 2.957031 -1.429688 2.671875 -2.382812 2.671875 -3.71875 L 2.671875 -12.921875 L 0.5625 -12.921875 L 0.5625 -13.921875 L 2.671875 -13.921875 L 2.671875 -17.46875 L 3.828125 -17.46875 L 3.828125 -13.921875 L 7.953125 -13.921875 L 7.953125 -12.921875 Z M 3.828125 -12.921875 "/></g></g></g></svg>